<svg xmlns="http://www.w3.org/2000/svg" width="20.473" height="19.501" viewBox="0 0 20.473 19.501">
  <path id="Combined-Shape" d="M10.235,1.039A6.891,6.891,0,0,1,15.887.325c4.059,1.309,5.319,5.734,4.192,9.255-1.739,5.53-9.166,9.655-9.481,9.828a.748.748,0,0,1-.719,0C9.566,19.239,2.193,15.175.4,9.581a0,0,0,0,1,0,0C-.733,6.058.523,1.632,4.578.325A6.729,6.729,0,0,1,10.235,1.039Zm-5.2.714C1.757,2.811.933,6.34,1.824,9.123c1.4,4.362,6.941,7.889,8.413,8.762,1.477-.882,7.056-4.448,8.413-8.758.891-2.786.064-6.315-3.222-7.374a5.289,5.289,0,0,0-4.731.792.75.75,0,0,1-.91.006A5.234,5.234,0,0,0,5.038,1.753Zm9.43,1.986A3.525,3.525,0,0,1,16.9,6.814a.75.75,0,0,1-.687.808c-.021,0-.041,0-.062,0a.75.75,0,0,1-.747-.689,2.024,2.024,0,0,0-1.4-1.769.75.75,0,0,1,.46-1.428Z" fill="#bcbcbc"/>
</svg>
