<svg width="24" height="24" viewBox="0 0 24 24" fill="none" xmlns="http://www.w3.org/2000/svg">
<path d="M15.6062 20.7789H15.6063V20.7733V17.7156C15.6063 17.1401 15.3759 16.5893 14.9677 16.184C14.5596 15.7789 14.0073 15.5523 13.4326 15.5523H10.5584C9.36312 15.5523 8.38478 16.5157 8.38478 17.7156V20.5947C8.36826 20.6553 8.35906 20.7183 8.35786 20.7824C8.35311 21.0366 8.14229 21.25 7.87229 21.25H5.95617C4.45643 21.25 3.25 20.0445 3.25 18.5689V9.87648C3.26454 9.36102 3.51091 8.87723 3.92439 8.55906L3.93009 8.55468L3.9357 8.55019L10.4541 3.3325L10.4645 3.3242L10.4745 3.31553C11.3267 2.58238 12.5871 2.55955 13.4658 3.26177L13.4681 3.26356L20.1314 8.54663C20.5245 8.87595 20.75 9.3592 20.75 9.86686V18.5778C20.75 19.286 20.4662 19.9661 19.9595 20.4679C19.4525 20.9698 18.7641 21.2518 18.0458 21.25H18.0438H16.0829C15.9541 21.25 15.8318 21.1989 15.7427 21.1098C15.6538 21.021 15.6053 20.9017 15.6062 20.7789ZM16.0829 22H18.0438L2.5 18.5689C2.5 20.4639 4.04738 22 5.95617 22H7.87229C8.54647 22 9.09526 21.4638 9.10773 20.7964C9.10789 20.788 9.1133 20.7804 9.1213 20.7778C9.12934 20.7751 9.13478 20.7676 9.13478 20.7591V17.7156C9.13478 16.9351 9.77217 16.3023 10.5584 16.3023H13.4326C13.8102 16.3023 14.1723 16.4512 14.4393 16.7163C14.7063 16.9813 14.8563 17.3408 14.8563 17.7156V20.7733C14.8539 21.0978 14.9821 21.4099 15.2124 21.6402C15.4427 21.8705 15.7561 22 16.0829 22Z" stroke="#BCBCBC" stroke-width="1.5"/>
</svg>
