<svg width="19" height="20" viewBox="0 0 19 20" fill="none" xmlns="http://www.w3.org/2000/svg">
  <path fill-rule="evenodd" clip-rule="evenodd"
    d="M12.9087 0C16.0527 0 18.1647 2.153 18.1647 5.357V14.553C18.1647 17.785 16.1177 19.887 12.9497 19.907L5.2567 19.91C2.11269 19.91 -0.000305176 17.757 -0.000305176 14.553V5.357C-0.000305176 2.124 2.0467 0.023 5.2147 0.004L12.9077 0H12.9087ZM12.9087 1.5L5.2197 1.504C2.89169 1.518 1.4997 2.958 1.4997 5.357V14.553C1.4997 16.968 2.9047 18.41 5.2557 18.41L12.9447 18.407C15.2727 18.393 16.6647 16.951 16.6647 14.553V5.357C16.6647 2.942 15.2607 1.5 12.9087 1.5ZM12.7158 13.4737C13.1298 13.4737 13.4658 13.8097 13.4658 14.2237C13.4658 14.6377 13.1298 14.9737 12.7158 14.9737H5.4958C5.0818 14.9737 4.7458 14.6377 4.7458 14.2237C4.7458 13.8097 5.0818 13.4737 5.4958 13.4737H12.7158ZM12.7158 9.2872C13.1298 9.2872 13.4658 9.6232 13.4658 10.0372C13.4658 10.4512 13.1298 10.7872 12.7158 10.7872H5.4958C5.0818 10.7872 4.7458 10.4512 4.7458 10.0372C4.7458 9.6232 5.0818 9.2872 5.4958 9.2872H12.7158ZM8.2505 5.1104C8.6645 5.1104 9.0005 5.4464 9.0005 5.8604C9.0005 6.2744 8.6645 6.6104 8.2505 6.6104H5.4955C5.0815 6.6104 4.7455 6.2744 4.7455 5.8604C4.7455 5.4464 5.0815 5.1104 5.4955 5.1104H8.2505Z"
    fill="#BCBCBC" />
</svg>