<svg width="21" height="22" viewBox="0 0 21 22" fill="none" xmlns="http://www.w3.org/2000/svg">
    <path fill-rule="evenodd" clip-rule="evenodd"
        d="M11.7168 14.2914C12.9208 14.2914 13.9008 15.2644 13.9008 16.4604V19.5364C13.9008 19.7934 14.1068 19.9994 14.3708 20.0054H16.2768C17.7788 20.0054 18.9998 18.7994 18.9998 17.3174V8.59337C18.9928 8.08337 18.7498 7.60337 18.3328 7.28437L11.7398 2.02637C10.8548 1.32537 9.61679 1.32537 8.72879 2.02837L2.18079 7.28237C1.74779 7.61137 1.50479 8.09137 1.49979 8.61037V17.3174C1.49979 18.7994 2.72079 20.0054 4.22279 20.0054H6.14679C6.41779 20.0054 6.63779 19.7904 6.63779 19.5264C6.63779 19.4684 6.64479 19.4104 6.65679 19.3554V16.4604C6.65679 15.2714 7.63079 14.2994 8.82579 14.2914H11.7168ZM16.2768 21.5054H14.3528C13.2508 21.4794 12.4008 20.6144 12.4008 19.5364V16.4604C12.4008 16.0914 12.0938 15.7914 11.7168 15.7914H8.83079C8.46179 15.7934 8.15679 16.0944 8.15679 16.4604V19.5264C8.15679 19.6014 8.14679 19.6734 8.12579 19.7414C8.01779 20.7314 7.17179 21.5054 6.14679 21.5054H4.22279C1.89379 21.5054 -0.000213623 19.6264 -0.000213623 17.3174V8.60337C0.00978638 7.60937 0.467786 6.69937 1.25879 6.10037L7.79379 0.855372C9.23279 -0.284628 11.2378 -0.284628 12.6738 0.853372L19.2558 6.10337C20.0288 6.69237 20.4868 7.60037 20.4998 8.58237V17.3174C20.4998 19.6264 18.6058 21.5054 16.2768 21.5054Z"
        fill="#BCBCBC" />
</svg>