<svg id="Icon_-_Profile" data-name="Icon - Profile" xmlns="http://www.w3.org/2000/svg" width="24" height="24" viewBox="0 0 24 24">
  <rect id="Icon_-_Profile-2" data-name="Icon - Profile" width="24" height="24" fill="rgba(0,0,0,0)"/>
  <path id="Vector" d="M15.84,16.193c0,3.3-4.52,3.677-7.919,3.677H7.678C5.512,19.865,0,19.728,0,16.173c0-3.229,4.338-3.66,7.711-3.677h.453C10.33,12.5,15.84,12.639,15.84,16.193ZM7.921,14C3.66,14,1.5,14.728,1.5,16.173s2.16,2.2,6.421,2.2,6.419-.732,6.419-2.177S12.181,14,7.921,14Zm0-14a5.31,5.31,0,0,1,0,10.619H7.889A5.31,5.31,0,0,1,7.921,0Zm0,1.428a3.882,3.882,0,0,0-.029,7.764l.029.714V9.192a3.882,3.882,0,0,0,0-7.764Z" transform="translate(4 2)" fill="#08080a"/>
</svg>
